<?xml version="1.0" encoding="iso-8859-1"?>
<svg version="1.1" id="Capa_1" xmlns="http://www.w3.org/2000/svg" xmlns:xlink="http://www.w3.org/1999/xlink" x="0px" y="0px"
	 viewBox="0 0 490.8 490.8" style="enable-background:new 0 0 490.8 490.8;" xml:space="preserve">
<g>
	<path style="fill:#FFFFFF;" d="M231.696,3.128c-4.237-4.093-10.99-3.975-15.083,0.262c-3.992,4.134-3.992,10.687,0,14.82
		l227.115,227.136L216.592,472.461c-4.237,4.093-4.355,10.845-0.262,15.083c4.093,4.237,10.845,4.354,15.083,0.262
		c0.089-0.086,0.176-0.173,0.262-0.262l234.667-234.667c4.164-4.165,4.164-10.917,0-15.083L231.696,3.128z"/>
	<path style="fill:#FFFFFF;" d="M274.363,237.795L39.696,3.128c-4.237-4.093-10.99-3.975-15.083,0.262
		c-3.992,4.134-3.992,10.687,0,14.821l227.115,227.136L24.592,472.461c-4.237,4.093-4.354,10.845-0.262,15.083
		c4.093,4.237,10.845,4.354,15.083,0.262c0.089-0.086,0.176-0.173,0.262-0.262l234.667-234.667
		C278.511,248.718,278.521,241.966,274.363,237.795z"/>
</g>
</svg>
